<?xml version="1.0" encoding="UTF-8"?>
<svg xmlns="http://www.w3.org/2000/svg" version="1.1" viewBox="0 0 173 53">
  <defs>
    <style>
      .cls-1 {
        fill: #989898;
      }

      .cls-2 {
        fill: #f26722;
      }

      .cls-3 {
        fill: #2f67b2;
      }
    </style>
  </defs>
  <!-- Generator: Adobe Illustrator 28.7.1, SVG Export Plug-In . SVG Version: 1.2.0 Build 142)  -->
  <g>
    <g id="Layer_1">
      <g>
        <path class="cls-2" d="M11.4,17.5c1.5-1.5,3.7-2,5.7-2.1,2.6,0,5.2,0,7.8,0,0,1.7,0,3.4,0,5.1-2.3,0-4.6,0-6.9,0-2.1,0-3.8,2-3.8,4,0,1.4,0,2.7,0,4.1.1,2,1.8,3.8,3.8,3.8,2.3,0,4.6,0,6.9,0,0,1.7,0,3.4,0,5.2-2.5,0-5.1,0-7.6,0-2,0-4.2-.5-5.7-1.9-1.6-1.5-2.1-3.6-2.3-5.7,0-2.1,0-4.2,0-6.3,0-2.2.5-4.6,2.1-6.2Z"/>
        <g>
          <path class="cls-1" d="M25.7,15.4c1.4,0,2.8,0,4.2,0,.4,0,.7.4.7.8,0,1.1,0,2.3,0,3.4,0,.4-.2.9-.7.9-1.4,0-2.8,0-4.2,0v-5.1Z"/>
          <path class="cls-1" d="M25.7,32.5c1.4,0,2.8,0,4.2,0,.4,0,.7.5.7.9,0,1.1,0,2.3,0,3.4,0,.5-.4.8-.9.8-1.4,0-2.7,0-4.1,0v-5.2Z"/>
        </g>
        <path class="cls-3" d="M44,15.4c.4-.1.8.1.9.5,3.9,6.9,7.8,13.7,11.7,20.6.3.5,0,1.2-.6,1.2-1.3,0-2.6,0-3.9,0-.4,0-.6-.2-.8-.5-2.1-3.8-4.3-7.6-6.4-11.3-.2-.6-1.1-.6-1.4,0-2.2,3.8-4.3,7.6-6.5,11.5-.2.5-.8.4-1.2.4-1.1,0-2.3,0-3.4,0-.6,0-.9-.7-.6-1.2,3.8-6.8,7.7-13.6,11.5-20.3.2-.3.3-.6.7-.7Z"/>
        <path class="cls-3" d="M50.1,15.4c2.1,0,4.3,0,6.4,0,4.5,0,9,0,13.5,0,.5,0,.9.3.9.8,0,1.2,0,2.4,0,3.6,0,.5-.4.8-.9.7-2.2,0-4.4,0-6.6,0-.5,0-.7.5-.7.9,0,5.1,0,10.1,0,15.2,0,.4-.2,1-.7,1-1.1,0-2.3,0-3.4,0-.4,0-.8-.4-.8-.8,0-5.1,0-10.3,0-15.4,0-.4-.2-1-.7-.9-2.2,0-4.4,0-6.7,0-.4,0-.8-.3-.8-.7,0-1.1,0-2.3,0-3.4,0-.4.1-.8.5-.9Z"/>
        <path class="cls-3" d="M76.1,15.4c.4-.1.8,0,1,.4,3.7,6.6,7.5,13.1,11.2,19.7.2.4.5.7.6,1.1.2.5-.2,1-.7,1-1.3,0-2.6,0-3.9,0-.4,0-.6-.2-.8-.5-2.1-3.8-4.3-7.5-6.4-11.3-.3-.6-1.2-.5-1.4,0-2.1,3.7-4.3,7.5-6.4,11.2-.2.3-.4.6-.7.6-1.3,0-2.6,0-3.9,0-.6,0-1-.8-.6-1.3,3.9-6.8,7.8-13.7,11.6-20.5.1-.2.3-.4.5-.5Z"/>
        <path class="cls-3" d="M90.5,15.4c1.1,0,2.3,0,3.4,0,.5,0,.9.3.9.8,0,5.2,0,10.3,0,15.5,0,.4.4.8.8.8,3.3,0,6.6,0,9.9,0,.4,0,.8.3.8.8,0,1.2,0,2.4,0,3.6,0,.5-.5.8-1,.8-4.8,0-9.7,0-14.5,0-.5,0-1-.3-.9-.8,0-6.8,0-13.6,0-20.5,0-.4.2-.9.6-1Z"/>
        <path class="cls-3" d="M99.2,15.4c1.3,0,2.6,0,3.9,0,.5,0,1,0,1.3.4,1.4,1.7,2.8,3.5,4.2,5.2.3.3.5.7.9,1,.3.2.8,0,1-.3,1.4-1.7,2.8-3.5,4.2-5.2.3-.3.5-.7.9-1,.4-.1.7,0,1.1,0,1.3,0,2.5,0,3.8,0,.6,0,.9.9.5,1.3-2.8,3.5-5.5,7-8.3,10.5-.2.2-.3.4-.2.7,0,3,0,6,0,9,0,.4-.3.8-.8.8-1.1,0-2.3,0-3.4,0-.5,0-.8-.5-.7-1,0-3,0-5.9,0-8.9,0-.3-.1-.5-.3-.7-2.7-3.5-5.5-6.9-8.2-10.4-.4-.4-.2-1.3.4-1.3Z"/>
        <path class="cls-3" d="M126,15.4c4.8,0,9.6,0,14.3,0,.4,0,.9.2,1,.7,0,1.2,0,2.4,0,3.6,0,.5-.3.9-.8.9-4.8,0-9.7,0-14.5,0-.4,0-.9.2-.9.6-.2.7-.3,1.6.2,2.3.3.4.9.5,1.4.5,2.8,0,5.6,0,8.4,0,1.6,0,3.3.4,4.5,1.6,1.2,1.2,1.7,2.9,1.7,4.5,0,1.4,0,2.9-.6,4.2-.7,1.6-2.2,2.9-4,3.3-.8.2-1.6.1-2.4.1-4.5,0-9,0-13.5,0-.5,0-.9-.3-.9-.8,0-1.2,0-2.4,0-3.6,0-.5.4-.8.9-.8,4.8,0,9.7,0,14.5,0,.4,0,.8-.3.9-.7.1-.7.2-1.4-.1-2.1-.3-.5-.9-.7-1.5-.7-2.8,0-5.6,0-8.4,0-.9,0-1.9,0-2.7-.4-2-.8-3.4-2.8-3.6-4.9-.1-1.4-.1-2.9.3-4.3.3-1.1.9-2.2,1.9-2.9,1.1-.8,2.4-1.1,3.8-1.2Z"/>
        <path class="cls-3" d="M142.9,15.4c6.6,0,13.2,0,19.8,0,.4,0,1,.2,1,.7,0,1.2,0,2.4,0,3.6,0,.5-.3.9-.8.9-2.2,0-4.4,0-6.7,0-.5,0-.8.5-.7,1,0,5.1,0,10.1,0,15.2,0,.5-.3,1-.8.9-1.1,0-2.3,0-3.4,0-.5,0-.7-.5-.7-.9,0-5.1,0-10.1,0-15.2,0-.4-.2-1-.7-1-2.2,0-4.4,0-6.7,0-.4,0-.8-.3-.8-.7,0-1.2,0-2.4,0-3.6,0-.3.2-.7.5-.8Z"/>
      </g>
    </g>
  </g>
</svg>